<svg width="24" height="24" viewBox="0 0 24 24" fill="none" xmlns="http://www.w3.org/2000/svg">
<path d="M12.003 0.375C15.0899 0.38374 18.0473 1.61677 20.2262 3.8035C22.405 5.99024 23.6274 8.95205 23.625 12.039C23.6146 15.0557 22.4319 17.9503 20.3268 20.1112C18.2217 22.272 15.359 23.5299 12.3435 23.619L11.9745 23.625C8.95717 23.6186 6.06053 22.4393 3.89679 20.3363C1.73305 18.2333 0.471765 15.3714 0.3795 12.3555L0.375 11.988C0.378181 8.90642 1.60477 5.95218 3.78518 3.77458C5.9656 1.59698 8.92142 0.374204 12.003 0.375ZM14.9265 13.125H9.072C9.3045 17.4705 10.836 21.1395 11.901 21.3645L12.003 21.375C13.023 21.372 14.583 17.8275 14.901 13.53L14.9265 13.125ZM21.309 13.125H17.181C17.0445 16.065 16.386 18.7995 15.399 20.739C16.9214 20.1459 18.2625 19.1657 19.2899 17.8953C20.3172 16.6248 20.9951 15.1083 21.2565 13.4955L21.309 13.125ZM6.8175 13.125H2.6925C2.89654 14.8086 3.55297 16.4055 4.59201 17.7459C5.63105 19.0864 7.01388 20.1202 8.5935 20.7375C7.671 18.9255 7.0395 16.425 6.8505 13.7085L6.8175 13.1235V13.125ZM8.5995 3.261L8.427 3.33C6.88769 3.96575 5.54527 4.99964 4.53752 6.32556C3.52976 7.65149 2.89297 9.22169 2.6925 10.875H6.8175C6.945 8.13 7.524 5.565 8.406 3.66L8.5995 3.261ZM11.9925 2.625C10.9395 2.628 9.3165 6.393 9.072 10.875H14.928C14.694 6.5205 13.161 2.8605 12.09 2.634L11.9925 2.6235V2.625ZM15.4125 3.273L15.447 3.348C16.4115 5.28 17.0505 7.974 17.1825 10.875H21.3045C21.0965 9.195 20.4393 7.60218 19.4022 6.26432C18.365 4.92645 16.9862 3.89306 15.411 3.273H15.4125Z" fill="black"/>
</svg>
