<svg width="102" height="32" viewBox="0 0 102 32" fill="none" xmlns="http://www.w3.org/2000/svg">
<g clip-path="url(#clip0)">
<path d="M29.2392 22.6799C29.0792 22.2899 28.9292 21.8799 28.7692 21.5299L28.0292 19.8599L27.9992 19.8299C25.7992 15.0299 23.4492 10.1499 20.9592 5.34994L20.8592 5.14994C20.6092 4.67994 20.3592 4.15994 20.0992 3.67994C19.7792 3.10994 19.4692 2.49994 18.9592 1.91994C18.4621 1.31308 17.8365 0.824133 17.1274 0.488399C16.4184 0.152666 15.6437 -0.0214844 14.8592 -0.0214844C14.0747 -0.0214844 13.3 0.152666 12.591 0.488399C11.882 0.824133 11.2564 1.31308 10.7592 1.91994C10.2892 2.49994 9.93923 3.10994 9.61923 3.67994C9.36923 4.19994 9.11923 4.70994 8.85923 5.17994L8.75923 5.37994C6.30923 10.1799 3.91923 15.0599 1.71923 19.8599L1.65923 19.9199C1.43923 20.4399 1.17923 20.9799 0.929227 21.5599C0.769227 21.9099 0.609227 22.2899 0.449227 22.7099C0.0172592 23.8097 -0.120682 25.0031 0.0489988 26.1724C0.218679 27.3418 0.690124 28.4467 1.41687 29.3784C2.14362 30.31 3.10058 31.0362 4.19345 31.4854C5.28632 31.9346 6.47737 32.0912 7.64923 31.9399C8.7727 31.7921 9.8545 31.4178 10.8292 30.8399C12.1292 30.1099 13.3792 29.0499 14.7792 27.5199C16.1792 29.0499 17.4592 30.1099 18.7292 30.8499C19.9505 31.5668 21.3336 31.9624 22.7492 31.9999C24.3886 32.0068 25.975 31.4202 27.2157 30.3487C28.4564 29.2771 29.2675 27.7928 29.4992 26.1699C29.7671 25.0037 29.6764 23.7838 29.2392 22.6699V22.6799ZM14.8792 24.3399C13.1592 22.1399 12.0392 20.1199 11.6592 18.3899C11.5018 17.7489 11.4679 17.0837 11.5592 16.4299C11.6292 15.9199 11.8192 15.4699 12.0792 15.0899C12.6792 14.2199 13.7292 13.6799 14.8792 13.6799C15.4254 13.6633 15.9671 13.7824 16.4558 14.0268C16.9445 14.2711 17.3649 14.633 17.6792 15.0799C17.9392 15.4799 18.1292 15.9199 18.1892 16.4299C18.2892 17.0099 18.2492 17.6799 18.0892 18.3899C17.7092 20.0899 16.5892 22.1299 14.8792 24.3399ZM27.6192 25.8199C27.5056 26.6439 27.1781 27.4237 26.6693 28.0816C26.1604 28.7396 25.4881 29.2527 24.7192 29.5699C23.9592 29.8899 23.1192 29.9799 22.2992 29.8899C21.4992 29.7899 20.6992 29.5299 19.8792 29.0499C18.5177 28.2084 17.2935 27.1629 16.2492 25.9499C18.3492 23.3499 19.6192 20.9799 20.0992 18.8699C20.3292 17.8699 20.3592 16.9699 20.2592 16.1399C20.1344 15.3532 19.841 14.6028 19.3992 13.9399C18.8948 13.2212 18.2216 12.6374 17.4387 12.2398C16.6557 11.8423 15.7871 11.6431 14.9092 11.6599C13.0592 11.6599 11.4092 12.5199 10.4092 13.9299C9.95907 14.5911 9.66813 15.3475 9.55923 16.1399C9.42923 16.9799 9.45923 17.9099 9.71923 18.8699C10.1992 20.9799 11.4992 23.3799 13.5692 25.9699C12.5427 27.2061 11.3156 28.2608 9.93923 29.0899C9.10923 29.5699 8.31923 29.8199 7.51923 29.9199C6.27511 30.0793 5.01838 29.7412 4.02219 28.9791C3.026 28.2169 2.37088 27.0924 2.19923 25.8499C2.09923 25.0499 2.16923 24.2499 2.48923 23.3499C2.58923 23.0299 2.73923 22.7099 2.89923 22.3299C3.11923 21.8099 3.37923 21.2699 3.62923 20.7299L3.66923 20.6599C5.82923 15.8899 8.18923 11.0199 10.6392 6.24994L10.7392 6.04994C10.9892 5.56994 11.2392 5.05994 11.4992 4.57994C11.7592 4.06994 12.0392 3.57994 12.3992 3.17994C12.7108 2.80797 13.1002 2.50882 13.5399 2.30356C13.9796 2.09831 14.459 1.99193 14.9442 1.99193C15.4295 1.99193 15.9088 2.09831 16.3485 2.30356C16.7882 2.50882 17.1776 2.80797 17.4892 3.17994C17.8392 3.57994 18.1292 4.06994 18.3892 4.57994C18.6392 5.05994 18.8892 5.57995 19.1492 6.04994L19.2492 6.24994C21.6892 11.0199 24.0492 15.8899 26.2492 20.6599L26.2792 20.6899C26.5392 21.2099 26.7592 21.7899 27.0092 22.2899C27.1692 22.6799 27.3292 22.9899 27.4292 23.3199C27.6192 24.2199 27.7192 25.0199 27.6192 25.8199ZM41.5392 24.1199C40.7857 24.131 40.0393 23.9722 39.3555 23.6554C38.6717 23.3386 38.068 22.8719 37.5892 22.2899C36.5133 21.0499 35.9423 19.451 35.9892 17.8099C35.9728 16.1332 36.5622 14.5068 37.6492 13.2299C38.152 12.6406 38.7779 12.1686 39.4828 11.8472C40.1877 11.5259 40.9545 11.3629 41.7292 11.3699C42.4582 11.35 43.1802 11.5157 43.8274 11.8516C44.4747 12.1875 45.0259 12.6824 45.4292 13.2899L45.5292 11.7199H48.4492V23.7999H45.5192L45.4192 22.0399C45.0034 22.6886 44.4286 23.2202 43.7496 23.5842C43.0705 23.9483 42.3096 24.1327 41.5392 24.1199ZM42.2992 21.2399C42.8792 21.2399 43.3892 21.0799 43.8692 20.7899C44.3092 20.4699 44.6692 20.0499 44.9492 19.5399C45.1992 19.0299 45.3292 18.4199 45.3292 17.7399C45.3682 17.1493 45.2532 16.5587 44.9956 16.0259C44.7379 15.493 44.3464 15.0361 43.8592 14.6999C43.3912 14.4083 42.8507 14.2537 42.2992 14.2537C41.7477 14.2537 41.2073 14.4083 40.7392 14.6999C40.2992 15.0199 39.9392 15.4399 39.6592 15.9499C39.3948 16.5124 39.2647 17.1286 39.2792 17.7499C39.2402 18.3405 39.3552 18.9312 39.6129 19.464C39.8705 19.9969 40.2621 20.4538 40.7492 20.7899C41.2192 21.0799 41.7292 21.2399 42.2992 21.2399ZM53.4492 8.45994C53.4492 8.80995 53.3892 9.12994 53.2292 9.38995C53.0692 9.63995 52.8492 9.86994 52.5592 10.0299C52.2692 10.1899 51.9592 10.2499 51.6392 10.2499C51.3192 10.2499 50.9992 10.1899 50.7092 10.0299C50.435 9.87726 50.2043 9.65694 50.0392 9.38995C49.8844 9.10508 49.8084 8.78401 49.8192 8.45994C49.8192 8.09995 49.8892 7.77994 50.0392 7.52994C50.1992 7.22994 50.4292 7.04994 50.7092 6.88994C50.9992 6.72994 51.3092 6.65994 51.6392 6.65994C51.9575 6.65261 52.2723 6.728 52.5527 6.87874C52.8332 7.02948 53.0697 7.25042 53.2392 7.51994C53.3848 7.81149 53.4568 8.13418 53.4492 8.45994ZM50.0492 23.7599V11.6999H53.2292V23.7799H50.0392L50.0492 23.7599ZM61.7292 14.8599V14.8999C61.5792 14.8299 61.3792 14.7999 61.2292 14.7699C61.0292 14.7299 60.8692 14.7299 60.6792 14.7299C59.7892 14.7299 59.1192 14.9899 58.6792 15.5299C58.1992 16.0799 57.9792 16.8499 57.9792 17.8399V23.7699H54.7892V11.6899H57.7192L57.8192 13.5199C58.1392 12.8799 58.5192 12.3999 59.0592 12.0399C59.5964 11.6902 60.2287 11.5155 60.8692 11.5399C61.0992 11.5399 61.3192 11.5599 61.5092 11.5999C61.6092 11.6299 61.6692 11.6299 61.7292 11.6599V14.8599ZM63.0092 23.7599V6.73994H66.1892V13.2399C66.6392 12.6599 67.1492 12.2099 67.7892 11.8599C68.8024 11.3632 69.9534 11.2223 71.0565 11.4599C72.1596 11.6976 73.1505 12.3 73.8692 13.1699C74.9475 14.4125 75.5187 16.0154 75.4692 17.6599C75.4857 19.3367 74.8962 20.9631 73.8092 22.2399C73.3064 22.8293 72.6805 23.3013 71.9756 23.6227C71.2707 23.944 70.5039 24.1069 69.7292 24.0999C69.0003 24.1199 68.2783 23.9541 67.631 23.6183C66.9838 23.2824 66.4326 22.7875 66.0292 22.1799L65.9292 23.7499L63.0092 23.7799V23.7599ZM69.1592 21.2399C69.7292 21.2399 70.2392 21.0799 70.7192 20.7899C71.1592 20.4699 71.5192 20.0499 71.7992 19.5399C72.0592 19.0299 72.1792 18.4199 72.1792 17.7399C72.1792 17.0699 72.0592 16.4599 71.7992 15.9499C71.5366 15.4582 71.1677 15.0312 70.7192 14.6999C70.2512 14.4083 69.7107 14.2537 69.1592 14.2537C68.6077 14.2537 68.0673 14.4083 67.5992 14.6999C67.1492 15.0199 66.7992 15.4399 66.5092 15.9499C66.2448 16.5124 66.1147 17.1286 66.1292 17.7499C66.0902 18.3405 66.2052 18.9312 66.4629 19.464C66.7205 19.9969 67.1121 20.4538 67.5992 20.7899C68.0692 21.0799 68.5792 21.2399 69.1592 21.2399ZM76.6692 23.7699V11.6899H79.5992L79.6992 13.2599C80.0674 12.6581 80.5897 12.1656 81.2121 11.8333C81.8345 11.501 82.5343 11.3411 83.2392 11.3699C84.0453 11.356 84.8376 11.5801 85.5171 12.0141C86.1965 12.448 86.7329 13.0727 87.0592 13.8099C87.4092 14.5699 87.5992 15.5099 87.5992 16.5599V23.7999H84.4092V16.9799C84.4092 16.1399 84.2192 15.4799 83.8392 14.9899C83.4592 14.5099 82.9392 14.2499 82.2792 14.2499C81.7992 14.2499 81.3792 14.3499 81.0092 14.5699C80.6592 14.7999 80.3692 15.0899 80.1492 15.4999C79.9268 15.9144 79.8165 16.3798 79.8292 16.8499V23.7699H76.6692ZM89.1892 23.7699V6.72994H92.3792V13.2299C92.8113 12.6467 93.3734 12.1722 94.0209 11.8441C94.6684 11.5161 95.3834 11.3434 96.1092 11.3399C96.8628 11.3289 97.6091 11.4877 98.2929 11.8045C98.9767 12.1213 99.5804 12.588 100.059 13.1699C101.13 14.4125 101.697 16.0105 101.649 17.6499C101.667 19.3269 101.077 20.9536 99.9892 22.2299C99.4864 22.8193 98.8605 23.2913 98.1556 23.6127C97.4507 23.934 96.6839 24.0969 95.9092 24.0899C95.1803 24.1099 94.4583 23.9441 93.811 23.6083C93.1638 23.2724 92.6126 22.7775 92.2092 22.1699L92.1192 23.7399L89.1892 23.7699ZM95.3692 21.2399C95.9492 21.2399 96.4592 21.0799 96.9292 20.7899C97.3792 20.4699 97.7292 20.0499 98.0192 19.5399C98.2692 19.0299 98.3992 18.4199 98.3992 17.7399C98.4382 17.1493 98.3232 16.5587 98.0656 16.0259C97.8079 15.493 97.4164 15.0361 96.9292 14.6999C96.4612 14.4083 95.9207 14.2537 95.3692 14.2537C94.8177 14.2537 94.2773 14.4083 93.8092 14.6999C93.3692 15.0199 93.0092 15.4399 92.7292 15.9499C92.4501 16.5074 92.3192 17.1273 92.3492 17.7499C92.3102 18.3405 92.4252 18.9312 92.6829 19.464C92.9405 19.9969 93.3321 20.4538 93.8192 20.7899C94.2892 21.0799 94.7692 21.2399 95.3692 21.2399Z" fill="white"/>
</g>
<defs>
<clipPath id="clip0">
<rect width="102" height="32" fill="white"/>
</clipPath>
</defs>
</svg>
